<svg xmlns="http://www.w3.org/2000/svg" width="40.412" height="26.558" viewBox="0 0 40.412 26.558">
  <g id="Bread" transform="translate(0)">
    <path id="Path_4" data-name="Path 4" d="M38.033,103.756a.592.592,0,1,0-.766.9,4.766,4.766,0,0,1,1.961,3.517,2.852,2.852,0,0,1-.894,2.107c-1.007,1.007-2.882,1.758-5.571,2.231a54.022,54.022,0,0,1-9.247.623c-5.88-.008-10.028-.517-12.624-1.551q1.5-1.067,3.216-2.567a2.107,2.107,0,0,0,3.717-1.161,12.576,12.576,0,0,0,.006-2.338q1.559-1.555,2.819-2.943a7.991,7.991,0,0,1,1.08,4.876,2.134,2.134,0,0,0,1.9,2.325,2.109,2.109,0,0,0,2.3-1.908A12.236,12.236,0,0,0,24.5,100.8a31.819,31.819,0,0,1,3.322.275,8.522,8.522,0,0,1,1.81,4.057,8.12,8.12,0,0,1,0,2.324,2.114,2.114,0,1,0,4.183.607,12.4,12.4,0,0,0-.006-3.548,12.155,12.155,0,0,0-.5-2.076,17.665,17.665,0,0,1,1.678.742.592.592,0,0,0,.537-1.055A27.694,27.694,0,0,0,23.159,99.6q.478-.619.89-1.207c1.734-2.473,2.577-4.5,2.577-6.2a4.035,4.035,0,0,0-1.206-2.96c-1.674-1.669-4.508-1.933-7.98-.741A27.613,27.613,0,0,0,7.395,95.138C2.834,99.687,0,105.028,0,109.077a5.548,5.548,0,0,0,1.479,4.041,4.023,4.023,0,0,0,2.952,1.2,9.113,9.113,0,0,0,4.279-1.344q.5-.276,1.022-.608c2.7,1.3,7.215,1.944,13.783,1.953a57,57,0,0,0,9.453-.64c2.975-.523,5-1.36,6.2-2.559a4.034,4.034,0,0,0,1.24-2.946,5.894,5.894,0,0,0-2.379-4.418Zm-6.173-1.814a11.082,11.082,0,0,1,.783,2.747,11.216,11.216,0,0,1,.005,3.21.925.925,0,0,1-1.048.795.946.946,0,0,1-.791-1.071,9.3,9.3,0,0,0,0-2.663,9.4,9.4,0,0,0-1.344-3.611c.831.164,1.633.362,2.4.593Zm-15.213,5.8a.924.924,0,0,1-1.654.485q.827-.75,1.705-1.6c0,.371-.016.743-.052,1.113Zm7.961-3.2a11.215,11.215,0,0,1,.149,3.207.928.928,0,0,1-1.011.843.946.946,0,0,1-.837-1.034,9.2,9.2,0,0,0-1.436-5.914q.372-.428.717-.841c.31-.012.623-.02.938-.023a11.227,11.227,0,0,1,1.481,3.762Zm-9.64-13.669a11.082,11.082,0,0,1,2.494,1.388,11.222,11.222,0,0,1,2.273,2.266.924.924,0,0,1-.108,1.245.948.948,0,0,1-1.388-.14,9.3,9.3,0,0,0-1.885-1.88,9.4,9.4,0,0,0-3.5-1.6c.7-.472,1.41-.9,2.115-1.276ZM3.354,102.29a11.076,11.076,0,0,1,2.586,1.286,11.225,11.225,0,0,1,2.373,2.162.925.925,0,0,1-.051,1.25.947.947,0,0,1-1.391-.077A9.31,9.31,0,0,0,4.9,105.116a9.216,9.216,0,0,0-2.408-1.151q.38-.829.859-1.676Zm4.783,9.649c-2.667,1.477-4.571,1.589-5.822.342a4.344,4.344,0,0,1-1.131-3.2,11.489,11.489,0,0,1,.85-4.016A8.064,8.064,0,0,1,4.239,106.1a8.126,8.126,0,0,1,1.717,1.566,2.136,2.136,0,0,0,3.14.162,2.1,2.1,0,0,0,.128-2.841A12.407,12.407,0,0,0,6.6,102.595a12.231,12.231,0,0,0-2.628-1.339c.485-.768,1.026-1.538,1.617-2.3a8.729,8.729,0,0,1,4.391,1.412,8.121,8.121,0,0,1,1.717,1.566,2.113,2.113,0,1,0,3.269-2.679,12.569,12.569,0,0,0-1.548-1.572.592.592,0,1,0-.767.9,11.378,11.378,0,0,1,1.4,1.424.927.927,0,0,1-.119,1.311.944.944,0,0,1-1.323-.139,9.307,9.307,0,0,0-1.968-1.794,9.654,9.654,0,0,0-4.153-1.534q.7-.824,1.483-1.619a11.473,11.473,0,0,1,2.5.9A.592.592,0,0,0,11,96.082a12.519,12.519,0,0,0-2.046-.807A31.8,31.8,0,0,1,11.5,93.12a8.522,8.522,0,0,1,4.147,1.588A8.126,8.126,0,0,1,17.3,96.349a2.139,2.139,0,0,0,3.13.3,2.1,2.1,0,0,0,.257-2.832,12.4,12.4,0,0,0-2.514-2.5,12.16,12.16,0,0,0-1.82-1.116q.744-.332,1.476-.584a11.115,11.115,0,0,1,3.55-.675,4.391,4.391,0,0,1,3.209,1.134,2.853,2.853,0,0,1,.858,2.122c0,1.425-.795,3.281-2.362,5.517a30.225,30.225,0,0,1-2.78,3.476c-3.527,3.671-7.8,8.33-12.164,10.748Z" transform="translate(0 -87.761)" fill="#707070"/>
  </g>
</svg>
