<svg xmlns="http://www.w3.org/2000/svg" width="30.308" height="26.638" viewBox="0 0 30.308 26.638">
  <g id="Cart" transform="translate(0)">
    <path id="Path_7" data-name="Path 7" d="M150,393.664A2.664,2.664,0,1,0,152.664,391,2.667,2.667,0,0,0,150,393.664Zm2.664-.888a.888.888,0,1,1-.888.888A.889.889,0,0,1,152.664,392.776Z" transform="translate(-141.121 -369.69)" fill="#fff"/>
    <path id="Path_8" data-name="Path 8" d="M362,393.664A2.664,2.664,0,1,0,364.664,391,2.667,2.667,0,0,0,362,393.664Zm2.664-.888a.888.888,0,1,1-.888.888A.889.889,0,0,1,364.664,392.776Z" transform="translate(-340.571 -369.69)" fill="#fff"/>
    <path id="Path_9" data-name="Path 9" d="M9.765,48.759h16.1a.888.888,0,0,0,.854-.644l3.552-12.431a.888.888,0,0,0-.854-1.132H11.188a.888.888,0,0,0-.888.888h0a.888.888,0,0,0,.888.888H28.243L25.2,46.983H10.479L7.082,31.7a.888.888,0,0,0-.867-.7H.913A.9.9,0,0,0,0,31.845a.888.888,0,0,0,.887.931H5.5L8.709,47.2A2.667,2.667,0,0,0,7.1,49.71a2.7,2.7,0,0,0,2.711,2.6H25.843a.9.9,0,0,0,.912-.845.888.888,0,0,0-.887-.931H9.767a.891.891,0,0,1-.843-1.174A.877.877,0,0,1,9.765,48.759Z" transform="translate(0 -31)" fill="#fff"/>
  </g>
</svg>
