<svg id="Flag" xmlns="http://www.w3.org/2000/svg" width="39.728" height="26.044" viewBox="0 0 39.728 26.044">
  <g id="Group_2" data-name="Group 2" transform="translate(0)">
    <path id="Path_1" data-name="Path 1" d="M37.9,88.177H1.826A1.828,1.828,0,0,0,0,90v22.392a1.828,1.828,0,0,0,1.826,1.826H37.9a1.828,1.828,0,0,0,1.826-1.826V90A1.828,1.828,0,0,0,37.9,88.177Zm.662,24.218a.663.663,0,0,1-.662.662H1.826a.663.663,0,0,1-.662-.662V90a.663.663,0,0,1,.662-.662H37.9a.663.663,0,0,1,.662.662Z" transform="translate(0 -88.177)" fill="#707070"/>
    <path id="Path_2" data-name="Path 2" d="M96.6,147.312,83.38,139.264a1.819,1.819,0,0,0-1.9,0l-13.223,8.049a.893.893,0,0,0,0,1.525l2.052,1.249a.582.582,0,0,0,.605-.994l-1.671-1.017,12.842-7.817a.66.66,0,0,1,.688,0l12.842,7.817-12.842,7.817a.66.66,0,0,1-.688,0l-8.871-5.4a.582.582,0,1,0-.605.994l8.871,5.4a1.819,1.819,0,0,0,1.9,0L96.6,148.838a.893.893,0,0,0,0-1.525Z" transform="translate(-62.567 -135.053)" fill="#707070"/>
    <path id="Path_3" data-name="Path 3" d="M189.929,185.534a4.386,4.386,0,0,1,2.228.612.582.582,0,1,0,.592-1,5.571,5.571,0,1,0,1.964,1.964.582.582,0,1,0-1,.592,4.386,4.386,0,0,1,.612,2.228c0,.042,0,.084,0,.126a15.986,15.986,0,0,0-8.048-2.559,4.393,4.393,0,0,1,3.657-1.961Zm4.171,5.773a4.394,4.394,0,0,1-8.374-2.662A14.85,14.85,0,0,1,194.1,191.307Z" transform="translate(-170.065 -176.906)" fill="#707070"/>
  </g>
</svg>
