<svg xmlns="http://www.w3.org/2000/svg" width="53.261" height="53.381" viewBox="0 0 53.261 53.381">
  <path id="Pinrest" d="M3581.379,3464.207a26.69,26.69,0,1,0,26.631,26.69A26.661,26.661,0,0,0,3581.379,3464.207Zm2.15,35.741c-2.013-.156-2.859-1.156-4.438-2.117-.868,4.563-1.928,8.938-5.069,11.223-.971-6.9,1.423-12.077,2.535-17.576-1.895-3.2.228-9.633,4.225-8.047,4.92,1.949-4.259,11.888,1.9,13.13,6.433,1.3,9.059-11.187,5.07-15.248-5.764-5.862-16.778-.133-15.424,8.259.33,2.052,2.446,2.674.845,5.505-3.689-.819-4.79-3.735-4.648-7.622.228-6.364,5.705-10.819,11.2-11.436,6.948-.779,13.468,2.557,14.369,9.106C3595.106,3492.517,3590.957,3500.523,3583.529,3499.948Z" transform="translate(-3554.748 -3464.207)" fill="#fff"/>
</svg>
