<svg xmlns="http://www.w3.org/2000/svg" width="20" height="20" viewBox="0 0 20 20">
  <path id="Star" d="M19.91,17.84a1.74,1.74,0,0,0-1.671-1.263H14.094a1.181,1.181,0,0,1-1.116-.842L11.67,11.6A1.739,1.739,0,0,0,10,10.339H9.993a1.741,1.741,0,0,0-1.667,1.272L7.061,15.726a1.181,1.181,0,0,1-1.119.851H1.762A1.74,1.74,0,0,0,.089,17.844a1.846,1.846,0,0,0,.643,2.048l3.379,2.545a1.254,1.254,0,0,1,.428,1.376l-1.3,4.114a1.847,1.847,0,0,0,.632,2.051,1.675,1.675,0,0,0,2.067.006l3.391-2.554a1.137,1.137,0,0,1,1.382,0l3.345,2.546a1.676,1.676,0,0,0,2.065.006,1.847,1.847,0,0,0,.645-2.044L15.493,23.8a1.254,1.254,0,0,1,.426-1.363l3.356-2.554a1.847,1.847,0,0,0,.634-2.047ZM18.585,18.9l-4.039,3.074a1.254,1.254,0,0,0-.426,1.363l1.531,4.976a.6.6,0,0,1-.215.681.551.551,0,0,1-.688,0l-4.032-3.069a1.137,1.137,0,0,0-1.382,0L5.252,29a.551.551,0,0,1-.689,0,.6.6,0,0,1-.211-.684L5.92,23.347a1.254,1.254,0,0,0-.428-1.376L1.418,18.9A.608.608,0,0,1,1.2,18.22a.574.574,0,0,1,.557-.423H6.8a1.181,1.181,0,0,0,1.119-.851l1.527-4.963A.569.569,0,0,1,10,11.56h0a.568.568,0,0,1,.557.42l1.572,4.976a1.181,1.181,0,0,0,1.116.842h4.993a.574.574,0,0,1,.557.421.608.608,0,0,1-.212.682Z" transform="translate(0 -10.339)" fill="#707070"/>
</svg>
