<svg xmlns="http://www.w3.org/2000/svg" width="53.261" height="53.381" viewBox="0 0 53.261 53.381">
  <path id="Twitter" d="M3658.376,3464.206a26.69,26.69,0,1,0,26.631,26.69A26.66,26.66,0,0,0,3658.376,3464.206Zm13.135,22.484c.012.273.019.548.019.825,0,8.431-6.4,18.153-18.111,18.153a17.973,17.973,0,0,1-9.757-2.866,12.822,12.822,0,0,0,9.424-2.642,6.374,6.374,0,0,1-5.946-4.43,6.375,6.375,0,0,0,2.875-.11,6.38,6.38,0,0,1-5.107-6.255c0-.027,0-.054,0-.081a6.309,6.309,0,0,0,2.883.8,6.4,6.4,0,0,1-1.969-8.518,18.054,18.054,0,0,0,13.12,6.667,6.37,6.37,0,0,1,10.847-5.82,12.725,12.725,0,0,0,4.042-1.548,6.394,6.394,0,0,1-2.8,3.529,12.677,12.677,0,0,0,3.656-1A12.924,12.924,0,0,1,3671.511,3486.69Z" transform="translate(-3631.745 -3464.206)" fill="#fff"/>
</svg>
